<svg xmlns="http://www.w3.org/2000/svg" version="1.1" xmlns:xlink="http://www.w3.org/1999/xlink" width="1000" height="1000"><g clip-path="url(#SvgjsClipPath1307)"><rect width="1000" height="1000" fill="#ffffff"></rect><g transform="matrix(4.5,0,0,4.5,50,50)"><svg xmlns="http://www.w3.org/2000/svg" version="1.1" xmlns:xlink="http://www.w3.org/1999/xlink" width="200" height="200"><svg xmlns="http://www.w3.org/2000/svg" version="1.1" xmlns:xlink="http://www.w3.org/1999/xlink" viewBox="0 0 200 200"><rect width="200" height="200" fill="url('#gradient')"></rect><defs><linearGradient id="gradient" gradientTransform="rotate(320 0.5 0.5)"><stop offset="0%" stop-color="#ffffff"></stop><stop offset="100%" stop-color="#ffffff"></stop></linearGradient><clipPath id="SvgjsClipPath1307"><rect width="1000" height="1000" x="0" y="0" rx="500" ry="500"></rect></clipPath></defs><g><g fill="#030303" transform="matrix(7.615189873417721,0,0,7.615189873417721,-2.1607430153255223,154.14825869572314)" stroke="#000000" stroke-width="1.15"><path d="M8.87 0L6.36-5.02L4.50-5.02L4.50 0L1.07 0L1.07-14.22L6.67-14.22Q9.20-14.22 10.63-13.10Q12.05-11.97 12.05-9.92L12.05-9.92Q12.05-8.44 11.45-7.46Q10.85-6.48 9.57-5.88L9.57-5.88L12.54-0.15L12.54 0L8.87 0ZM4.50-11.57L4.50-7.67L6.67-7.67Q7.65-7.67 8.14-8.18Q8.63-8.69 8.63-9.61Q8.63-10.53 8.13-11.05Q7.64-11.57 6.67-11.57L6.67-11.57L4.50-11.57ZM25.76-7.60L25.76-1.76Q24.97-0.88 23.45-0.34Q21.92 0.20 20.11 0.20L20.11 0.20Q17.31 0.20 15.64-1.51Q13.97-3.22 13.86-6.27L13.86-6.27L13.85-7.50Q13.85-9.60 14.59-11.17Q15.33-12.73 16.71-13.58Q18.10-14.42 19.91-14.42L19.91-14.42Q22.57-14.42 24.04-13.21Q25.51-11.99 25.75-9.58L25.75-9.58L22.45-9.58Q22.28-10.77 21.69-11.28Q21.10-11.79 20.03-11.79L20.03-11.79Q18.74-11.79 18.04-10.69Q17.33-9.60 17.32-7.57L17.32-7.57L17.32-6.71Q17.32-4.58 18.05-3.51Q18.78-2.44 20.34-2.44L20.34-2.44Q21.68-2.44 22.33-3.04L22.33-3.04L22.33-5.24L19.95-5.24L19.95-7.60L25.76-7.60Z"></path></g></g></svg></svg></g></g></svg>